<svg xmlns="http://www.w3.org/2000/svg" viewBox="0 0 128 128">
  <defs>
    <linearGradient id="grad1" x1="0%" y1="0%" x2="100%" y2="100%">
      <stop offset="0%" style="stop-color:#007ACC;stop-opacity:1" />
      <stop offset="100%" style="stop-color:#005A9E;stop-opacity:1" />
    </linearGradient>
  </defs>
  <rect width="128" height="128" rx="16" fill="url(#grad1)"/>
  <path d="M32 32h8v64h-8zM48 32h8v64h-8zM64 32h8v64h-8z" fill="white"/>
  <path d="M32 32h40v8h-40zM32 88h40v8h-40z" fill="white"/>
  <path d="M88 48c-8.837 0-16 7.163-16 16s7.163 16 16 16c8.837 0 16-7.163 16-16s-7.163-16-16-16zm0 24c-4.418 0-8-3.582-8-8s3.582-8 8-8 8 3.582 8 8-3.582 8-8 8z" fill="#00D4AA"/>
  <circle cx="88" cy="64" r="6" fill="white"/>
</svg>
